<svg xmlns="http://www.w3.org/2000/svg" viewBox="0 0 121.22 122.88">
    <path d="M114.53 66.42c.06.09.12.17.18.26.26.39.55.84.85 1.34 5.16 8.5 6.41 18.29 4.25 27.25-2.16 8.98-7.73 17.13-16.2 22.32a35.684 35.684 0 01-20.97 5.22 35.94 35.94 0 01-20.22-7.85c-.05-.04-.09-.08-.13-.12-5.61 3.93-12.44 6.33-19.49 6.5-.55.01-.77.02-.78.02-9.72 0-18.52-4.01-24.89-10.5-6.36-6.48-10.3-15.42-10.3-25.29 0-.3.01-.75.03-1.36.02-.55.04-1 .07-1.36.02-.24.06-.46.13-.68-.97-2.38-1.62-4.93-1.92-7.58-.13-.15-.24-.32-.33-.51C1.52 67.51 0 60.86 0 54.56c0-7.02 1.88-13.63 5.32-19.28 3.43-5.64 8.41-10.3 14.62-13.4a38.43 38.43 0 016.96-2.67c.08-.3.21-.59.39-.86A41.318 41.318 0 0142.15 4.87 40.78 40.78 0 0161.53 0c6.71 0 13.04 1.61 18.64 4.46 5.8 2.95 10.81 7.25 14.63 12.48l.01.01c6.77.94 12.83 4.08 17.44 8.69 5.55 5.55 8.98 13.21 8.98 21.67 0 6.71-2.16 12.92-5.82 17.97-.29.39-.58.77-.88 1.14zm-79.78-48.6c1.19-.1 2.41-.15 3.65-.15 2.97 0 5.88.34 8.7.98 2.62.59 5.14 1.45 7.54 2.54 3.75-1.81 7.95-2.82 12.37-2.82 3.36 0 6.59.58 9.6 1.65 2.12-1.09 4.39-1.94 6.77-2.51 1.32-.32 2.67-.55 4.03-.7-2.8-2.97-6.11-5.46-9.8-7.34a35.408 35.408 0 00-16.08-3.84c-6.07 0-11.77 1.51-16.74 4.17a35.89 35.89 0 00-10.04 8.02zM6.39 62.52c1.06-3.23 2.68-6.21 4.75-8.83 3.94-4.98 9.49-8.62 15.87-10.12.1-.02.19-.04.29-.05.7-.92 1.45-1.78 2.26-2.6 3.19-3.19 7.23-5.52 11.75-6.62a29.18 29.18 0 017.62-9.48c-.99-.33-2-.61-3.04-.84-2.39-.54-4.9-.83-7.51-.83-6.03 0-11.43 1.3-16.02 3.6-5.26 2.63-9.48 6.58-12.4 11.37-2.91 4.78-4.5 10.42-4.5 16.43.02 2.61.31 5.27.93 7.97zM47.88 33.6c2.04.05 4.04.36 5.97.88 1.72.47 3.36 1.11 4.9 1.91.59-.12 1.19-.22 1.81-.3 1.02-.13 2.01-.2 2.96-.2 6.34 0 12.08 2.57 16.23 6.72s6.72 9.89 6.72 16.23c0 .74-.04 1.48-.1 2.2.44-.64.85-1.31 1.23-2 1.87-3.41 2.94-7.35 2.94-11.55 0-6.58-2.64-12.54-6.9-16.86-4.26-4.3-10.14-6.97-16.63-6.97-4.64 0-8.96 1.35-12.6 3.69a23.983 23.983 0 00-6.53 6.25zm34.27 38.65c-.52.73-1.09 1.42-1.69 2.08 0 .06.01.12.01.18 0 5.46-1.59 10.56-4.34 14.85.01.34.01.4.01.47 0 3.37-.62 6.62-1.74 9.66a22.9 22.9 0 0014.8-6.68c4.16-4.16 6.73-9.9 6.73-16.24 0-3.14-.62-6.12-1.75-8.82-.72-1.72-1.64-3.34-2.73-4.82a29.23 29.23 0 01-9.18 9.27c-.04.01-.08.03-.12.05zM94 57.7a28.17 28.17 0 015.06 8.01c.61 1.46 1.1 2.98 1.46 4.55 4.14-1.8 7.7-4.68 10.32-8.29 2.98-4.11 4.74-9.18 4.74-14.66 0-6.9-2.8-13.16-7.32-17.68a24.941 24.941 0 00-17.68-7.32c-2.06 0-4.03.24-5.89.68-.5.12-1 .26-1.49.41a29.165 29.165 0 0112.64 24.09A29.53 29.53 0 0194 57.7zM12.79 91.06c1.11 6.18 4.05 11.7 8.23 15.96 5.37 5.47 12.8 8.86 21 8.86h.66c7.31-.17 14.34-3.19 19.54-7.96 3.46-3.17 6.11-7.12 7.46-11.51-4.7 3.63-10.6 5.79-16.99 5.79-4.49 0-8.74-1.06-12.49-2.95a29.01 29.01 0 01-6.6.77c-7.9 0-15.05-3.2-20.23-8.38-.21-.19-.4-.38-.58-.58zm20.91 3.67c-.23-.21-.45-.42-.67-.64-5.04-5.02-8.15-11.94-8.15-19.58 0-.75.04-1.58.12-2.47.05-.54.11-1.08.19-1.61a24.886 24.886 0 01-2.96-11.81c0-2.91.5-5.71 1.41-8.31a23.344 23.344 0 00-8.37 6.65 23.215 23.215 0 00-5.01 14.46c0 6.44 2.61 12.27 6.83 16.49a23.247 23.247 0 0016.49 6.83l.12-.01zm-3.39-17.7c.58 5.18 2.93 9.83 6.44 13.32 4.07 4.05 9.7 6.56 15.92 6.56 6.22 0 11.85-2.51 15.92-6.56 3.09-3.08 5.28-7.05 6.16-11.49a22.804 22.804 0 01-11.23 2.93c-1.18 0-2.34-.09-3.48-.26-.65-.1-1.28-.23-1.92-.38a25.07 25.07 0 01-10.87 2.49c-6.53 0-12.48-2.51-16.94-6.61zm21.96.69c-4.94-.12-9.41-2.18-12.67-5.43-3.36-3.36-5.44-8-5.44-13.13 0-5.13 2.08-9.77 5.44-13.13 3.36-3.36 8-5.44 13.13-5.44 1.06 0 2.11.09 3.12.26-1.08-.53-2.22-.96-3.38-1.28-1.64-.45-3.38-.69-5.22-.69-5.45 0-10.38 2.21-13.95 5.78-3.57 3.57-5.78 8.5-5.78 13.95 0 5.45 2.21 10.38 5.78 13.95 3.57 3.57 8.51 5.78 13.95 5.78 1.63 0 3.18-.19 4.64-.54.13-.01.25-.05.38-.08zm7.93-36.24c-.22.16-.46.28-.71.37 2.41.94 4.58 2.37 6.38 4.17 3.36 3.36 5.44 8 5.44 13.13 0 3.82-1.15 7.37-3.13 10.33-.15.34-.37.65-.64.9a18.673 18.673 0 01-7.39 5.81l.67.12c.87.13 1.78.2 2.7.2 4.88 0 9.29-1.98 12.49-5.17 3.2-3.2 5.17-7.61 5.17-12.49s-1.98-9.29-5.17-12.49c-3.2-3.2-7.61-5.17-12.49-5.17-.83 0-1.6.05-2.3.14-.34.03-.68.08-1.02.15zm41.02 34.57v.51c0 7.8-3.16 14.87-8.28 19.98-5.11 5.11-12.18 8.28-19.98 8.28-.37 0-.72-.07-1.03-.21-1.44 2.38-3.2 4.58-5.21 6.55A30.32 30.32 0 0083 117.18c6 .38 12.16-1.02 17.68-4.4 7.14-4.38 11.84-11.25 13.66-18.81 1.83-7.58.77-15.86-3.59-23.04-.07-.12-.15-.24-.23-.36a30.649 30.649 0 01-9.3 5.48zM61.74 49.39a13.264 13.264 0 00-9.01-3.52c-3.38 0-6.46 1.26-8.8 3.33a8.93 8.93 0 002.58 7.01 8.93 8.93 0 0012.62 0 8.912 8.912 0 002.61-6.31c.01-.18.01-.36 0-.51zm-21.86 6.39c-.28 1.08-.43 2.21-.43 3.37 0 3.67 1.49 6.99 3.89 9.39 2.4 2.4 5.72 3.89 9.39 3.89 2.32 0 4.5-.59 6.4-1.64a16.45 16.45 0 01-3.74-1.47c-2.4-1.31-4.42-3.21-5.83-5.49-.02-.04-.04-.07-.06-.11a14.17 14.17 0 01-6.72-3.77c-1.2-1.19-2.19-2.6-2.9-4.17zm24.24 10.21a13.305 13.305 0 001.52-9.95c-.7 1.46-1.64 2.78-2.77 3.91a14.202 14.202 0 01-6.51 3.72c.48.38.99.72 1.54 1.02 1.55.84 3.35 1.32 5.29 1.32.37.01.68 0 .93-.02z"/>
</svg>
