<?xml version="1.0" encoding="UTF-8"?>
<svg width="552.5px" height="105px" viewBox="0 0 1105 210" version="1.1" xmlns="http://www.w3.org/2000/svg" xmlns:xlink="http://www.w3.org/1999/xlink">
    <!-- Generator: Sketch 60.1 (88133) - https://sketch.com -->
    <title>layer2</title>
    <desc>Created with Sketch.</desc>
    <g id="Page-1" stroke="none" stroke-width="1" fill="none" fill-rule="evenodd">
        <g id="layer2" transform="translate(0.000000, -276.000000)">
            <polygon id="path2995" fill="#663300" points="2.76982487e-14 276 221 276 221 486 0 486"></polygon>
            <path d="M14.8128296,283 L206.18717,283 C210.484089,283 214,286.34606 214,290.435389 L214,472.564611 C214,476.65406 210.484089,480 206.18717,480 L14.8128296,480 C10.5159111,480 7,476.65406 7,472.564611 L7,290.435389 C7,286.34606 10.5159111,283 14.8128296,283" id="path2997" fill="#CC9933"></path>
            <polygon id="path2999" stroke="#663300" stroke-width="7.0866251" points="33 308 187 308 187 455 33 455"></polygon>
            <polygon id="path3001" stroke="#663300" stroke-width="7.0866251" points="63 308 157 308 157 455 63 455"></polygon>
            <polygon id="path3003" stroke="#663300" stroke-width="7.0866251" points="95 308 126 308 126 455 95 455"></polygon>
            <polygon id="path3005" fill-opacity="0.5" fill="#FFFFCC" points="13 286 210 286 210 292 13 292"></polygon>
            <polygon id="path3007" fill-opacity="0.5" fill="#663300" points="7 474 216 474 216 483 7 483"></polygon>
            <polygon id="path3009" fill-opacity="0.5" fill="#FFFFCC" points="30 461 191 461 191 467 30 467"></polygon>
            <g id="g3041-Clipped" transform="translate(16.000000, 14.000000)" fill="#FFFFCC">
                <g id="g3041" transform="translate(61.918812, 394.326517) scale(-1, 1) rotate(-180.000000) translate(-61.918812, -394.326517) translate(49.918812, 351.326517)">
                    <polygon id="path3043" points="0.920089286 85.5009799 23.9850244 85.5009799 23.9850244 0.589285941 0.920089286 0.589285941"></polygon>
                </g>
            </g>
            <g id="g3075-Clipped" transform="translate(41.000000, 0.000000)" fill="#FFFFCC">
                <g id="g3075" transform="translate(69.334318, 382.326353) scale(-1, 1) rotate(-180.000000) translate(-69.334318, -382.326353) translate(57.334318, 313.326353)">
                    <polygon id="path3077" points="0.205305723 137.412168 23.3147033 137.412168 23.3147033 0.589429303 0.205305723 0.589429303"></polygon>
                </g>
            </g>
            <g id="g3109-Clipped" transform="translate(92.000000, 2.000000)" fill="#996633">
                <g id="g3109" transform="translate(81.265606, 383.326574) scale(-1, 1) rotate(-180.000000) translate(-81.265606, -383.326574) translate(69.265606, 317.326574)">
                    <polygon id="path3111" points="0.14240625 131.484606 23.0824062 131.484606 23.0824062 0.588888889 0.14240625 0.588888889"></polygon>
                </g>
            </g>
            <polygon id="path3113" fill-opacity="0.5" fill="#663300" points="35 309 45.1332768 309 176.866723 309 187 309 187 328.806752 187 453 176.866723 453 176.866723 328.806752 45.1332768 328.806752 45.1332768 453 35 453 35 328.806752 35 309"></polygon>
            <path d="M214.552989,455 L110.000058,455 L2,455 M2,308 L110.000058,308 L218,308" id="path3115" stroke="#663300" stroke-width="7.0866251"></path>
            <polygon id="path3117" fill-opacity="0.5" fill="#663300" points="219 310 188 310 188 320 219 320"></polygon>
            <path d="M17.5492825,289 C20.6137143,289 23.0985747,291.462781 23.0985747,294.5 C23.0985747,297.537209 20.6137143,300 17.5492825,300 C14.4848507,300 12,297.537219 12,294.5 C12,291.462791 14.4848507,289 17.5492825,289 Z M203.450718,289 C206.515149,289 209,291.462781 209,294.5 C209,297.537209 206.515149,300 203.450718,300 C200.386403,300 197.901425,297.537219 197.901425,294.5 C197.901425,291.462791 200.386403,289 203.450718,289" id="path3119" fill="#663300"></path>
            <path d="M17.5492825,465 C20.6137143,465 23.0985747,467.462783 23.0985747,470.5 C23.0985747,473.537217 20.6137143,476 17.5492825,476 C14.4848507,476 12,473.537217 12,470.5 C12,467.462783 14.4848507,465 17.5492825,465 Z M203.450718,465 C206.515149,465 209,467.462783 209,470.5 C209,473.537217 206.515149,476 203.450718,476 C200.386403,476 197.901425,473.537217 197.901425,470.5 C197.901425,467.462783 200.386403,465 203.450718,465" id="path3121" fill="#663300"></path>
            <polygon id="path3123" fill-opacity="0.5" fill="#663300" points="35 310 4 310 4 319 35 319"></polygon>
            <polygon id="path3125" fill="#663300" points="221 276 442 276 442 486 221 486 221 276"></polygon>
            <path d="M235.81283,283 L427.18717,283 C431.484206,283 435,286.34606 435,290.435389 L435,472.564611 C435,476.65406 431.484206,480 427.18717,480 L235.81283,480 C231.515911,480 228,476.65406 228,472.564611 L228,290.435389 C228,286.34606 231.515911,283 235.81283,283" id="path3127" fill="#C28529"></path>
            <polygon id="path3129" stroke="#663300" stroke-width="7.0866251" points="255 308 409 308 409 455 255 455 255 308"></polygon>
            <polygon id="path3131" stroke="#663300" stroke-width="7.0866251" points="285 308 379 308 379 455 285 455 285 308"></polygon>
            <polygon id="path3133" stroke="#663300" stroke-width="7.0866251" fill="#C28529" points="316 308 347 308 347 455 316 455"></polygon>
            <polygon id="path3135" fill-opacity="0.4" fill="#FFFFCC" points="234 286 431 286 431 292 234 292"></polygon>
            <polygon id="path3137" fill-opacity="0.5" fill="#663300" points="228 474 437 474 437 483 228 483"></polygon>
            <polygon id="path3139" fill-opacity="0.4" fill="#FFFFCC" points="251 461 412 461 412 467 251 467 251 461"></polygon>
            <g id="g3171-Clipped" transform="translate(267.000000, 2.000000)" fill="#996633">
                <g id="g3171" transform="translate(127.185295, 383.326574) scale(-1, 1) rotate(-180.000000) translate(-127.185295, -383.326574) translate(115.185295, 317.326574)">
                    <polygon id="path3173" points="0.00522465035 131.484606 23.0227255 131.484606 23.0227255 0.589236111 0.00522465035 0.589236111"></polygon>
                </g>
            </g>
            <polygon id="path3175" fill-opacity="0.5" fill="#663300" points="257 310 226 310 226 319 257 319"></polygon>
            <path d="M436.552865,455 L332,455 L224,455 M224,308 L332,308 L440,308" id="path3177" stroke="#663300" stroke-width="7.0866251"></path>
            <polygon id="path3179" fill-opacity="0.5" fill="#663300" points="255 331 332.000058 381.711481 409 331 409 366.799044 359.178438 399.610943 409 432.422963 409 454.454642 388.92407 455 332.000058 417.510525 275.076057 455 255 454.454642 255 432.422963 304.821562 399.610943 255 366.799044 255 331"></polygon>
            <polygon id="path3181" fill-opacity="0.5" fill="#663300" points="440 310 409 310 409 320 440 320"></polygon>
            <path d="M238.549279,289 C241.613709,289 244.098568,291.462781 244.098568,294.5 C244.098568,297.537209 241.613709,300 238.549279,300 C235.484849,300 233,297.537219 233,294.5 C233,291.462791 235.484849,289 238.549279,289 Z M424.450594,289 C427.515024,289 430,291.462781 430,294.5 C430,297.537209 427.515024,300 424.450594,300 C421.386282,300 418.901306,297.537219 418.901306,294.5 C418.901306,291.462791 421.386282,289 424.450594,289" id="path3183" fill="#663300"></path>
            <path d="M238.549279,465 C241.613709,465 244.098568,467.462783 244.098568,470.5 C244.098568,473.537217 241.613709,476 238.549279,476 C235.484849,476 233,473.537217 233,470.5 C233,467.462783 235.484849,465 238.549279,465 Z M424.450594,465 C427.515024,465 430,467.462783 430,470.5 C430,473.537217 427.515024,476 424.450594,476 C421.386282,476 418.901306,473.537217 418.901306,470.5 C418.901306,467.462783 421.386282,465 424.450594,465" id="path3185" fill="#663300"></path>
            <polygon id="path3187" stroke="#663300" stroke-width="7.0866251" fill="#C28529" points="255 311 409 412.99799 409 449 255 347.00201 255 311"></polygon>
            <polygon id="path3189" stroke="#663300" stroke-width="7.0866251" fill="#C28529" points="409 311 255 412.99799 255 449 409 347.00201 409 311"></polygon>
            <polygon id="path3191" fill-opacity="0.5" fill="#663300" points="360.024869 380 335 396.947648 340.975131 405 366 388.052361 360.024869 380"></polygon>
            <polygon id="path3193" fill-opacity="0.5" fill="#663300" points="257 309 267.133277 309 398.866723 309 409 309 409 328.806752 409 453 398.866723 453 398.866723 328.806752 267.133277 328.806752 267.133277 453 257 453 257 328.806752 257 309"></polygon>
            <g id="g3225-Clipped" transform="translate(144.000000, 14.000000)" fill="#FFDB96">
                <g id="g3225" transform="translate(96.426320, 394.326517) scale(-1, 1) rotate(-180.000000) translate(-96.426320, -394.326517) translate(84.426320, 351.326517)">
                    <polygon id="path3227" points="0.776868304 85.5009799 23.8224609 85.5009799 23.8224609 0.589285941 0.776868304 0.589285941"></polygon>
                </g>
            </g>
            <g id="g3259-Clipped" transform="translate(291.000000, 14.000000)" fill="#FFDB96">
                <g id="g3259" transform="translate(133.157699, 394.326517) scale(-1, 1) rotate(-180.000000) translate(-133.157699, -394.326517) translate(121.157699, 351.326517)">
                    <polygon id="path3261" points="0.282214765 85.5009799 23.3263884 85.5009799 23.3263884 0.589285941 0.282214765 0.589285941"></polygon>
                </g>
            </g>
            <g id="g3293-Clipped" transform="translate(158.000000, 8.000000)" fill="#FFDB96">
                <g id="g3293" transform="translate(154.466000, 383.326574) scale(-1, 1) rotate(-180.000000) translate(-154.466000, -383.326574) translate(109.466000, 342.326574)">
                    <polygon id="path3295" points="89.4234223 81.5979167 89.4234223 59.6721065 0.397330097 0.617013889 0.397330097 22.5428241"></polygon>
                </g>
            </g>
            <polygon id="path3297" fill="#663300" points="442 276 663 276 663 486 442 486"></polygon>
            <path d="M456.812942,283 L648.187058,283 C652.484091,283 656,286.34606 656,290.435389 L656,472.564611 C656,476.65406 652.484091,480 648.187058,480 L456.812942,480 C452.515909,480 449,476.65406 449,472.564611 L449,290.435389 C449,286.34606 452.515909,283 456.812942,283" id="path3299" fill="#C28529"></path>
            <polygon id="path3301" stroke="#663300" stroke-width="7.0866251" fill="#663300" points="446 322 658 322 658 439 446 439 446 322"></polygon>
            <polygon id="path3303" stroke="#663300" stroke-width="7.0866251" fill="#C28529" points="656 330 656 374 448 374 448 330 656 330"></polygon>
            <polygon id="path3305" stroke="#663300" stroke-width="7.0866251" fill="#C28529" points="656 387 656 431 448 431 448 387 656 387"></polygon>
            <polygon id="path3307" fill-opacity="0.25" fill="#FFFFCC" points="454 286 651 286 651 292 454 292"></polygon>
            <polygon id="path3309" fill-opacity="0.5" fill="#663300" points="448 474 657 474 657 483 448 483"></polygon>
            <polygon id="path3311" fill-opacity="0.25" fill="#FFFFCC" points="451 445 653 445 653 451 451 451"></polygon>
            <polygon id="path3313" fill-opacity="0.5" fill="#663300" points="654 366 450 366 450 376 654 376"></polygon>
            <path d="M459.549279,299 C462.613709,299 465.098568,301.462791 465.098568,304.5 C465.098568,307.537219 462.613709,310 459.549279,310 C456.484849,310 454,307.537219 454,304.5 C454,301.462791 456.484849,299 459.549279,299 Z M645.450711,299 C648.515024,299 651,301.462791 651,304.5 C651,307.537219 648.515024,310 645.450711,310 C642.386282,310 639.901432,307.537219 639.901432,304.5 C639.901432,301.462791 642.386282,299 645.450711,299" id="path3315" fill="#663300"></path>
            <path d="M459.549279,455 C462.613709,455 465.098568,457.462791 465.098568,460.5 C465.098568,463.537219 462.613709,466 459.549279,466 C456.484849,466 454,463.537219 454,460.5 C454,457.462791 456.484849,455 459.549279,455 Z M645.450711,455 C648.515024,455 651,457.462791 651,460.5 C651,463.537219 648.515024,466 645.450711,466 C642.386282,466 639.901432,463.537219 639.901432,460.5 C639.901432,457.462791 642.386282,455 645.450711,455" id="path3317" fill="#663300"></path>
            <g id="g3349-Clipped" transform="translate(281.000000, 58.000000)" fill="#FFDB96">
                <g id="g3349" transform="translate(262.921213, 348.594633) scale(-1, 1) rotate(-180.000000) translate(-262.921213, -348.594633) translate(171.421213, 333.094633)">
                    <polygon id="path3351" points="182.052267 30.2616497 182.052267 0.659941307 0.327767123 0.659941307 0.327767123 30.2616497"></polygon>
                </g>
            </g>
            <g id="g3383-Clipped" transform="translate(179.000000, 105.000000)" fill="#FFDB96">
                <g id="g3383" transform="translate(364.970725, 244.558370) scale(-1, 1) rotate(-180.000000) translate(-364.970725, -244.558370) translate(273.470725, 229.558370)">
                    <polygon id="path3385" points="182.003167 29.8093238 182.003167 0.243807829 0.327678723 0.243807829 0.327678723 29.8093238"></polygon>
                </g>
            </g>
            <polygon id="path3387" fill-opacity="0.5" fill="#663300" points="654 422 450 422 450 432 654 432"></polygon>
            <polygon id="path3389" fill-opacity="0.5" fill="#663300" points="656 314 448 314 448 324 656 324"></polygon>
            <path d="M459.549279,404 C462.613709,404 465.098568,406.462781 465.098568,409.5 C465.098568,412.537209 462.613709,415 459.549279,415 C456.484849,415 454,412.537219 454,409.5 C454,406.462781 456.484849,404 459.549279,404 Z M645.450711,404 C648.515024,404 651,406.462781 651,409.5 C651,412.537209 648.515024,415 645.450711,415 C642.386282,415 639.901432,412.537219 639.901432,409.5 C639.901432,406.462781 642.386282,404 645.450711,404" id="path3391" fill="#663300"></path>
            <path d="M459.549279,348 C462.613709,348 465.098568,350.462781 465.098568,353.5 C465.098568,356.537209 462.613709,359 459.549279,359 C456.484849,359 454,356.537219 454,353.5 C454,350.462781 456.484849,348 459.549279,348 Z M645.450711,348 C648.515024,348 651,350.462781 651,353.5 C651,356.537209 648.515024,359 645.450711,359 C642.386282,359 639.901432,356.537219 639.901432,353.5 C639.901432,350.462781 642.386282,348 645.450711,348" id="path3393" fill="#663300"></path>
            <polygon id="path3395" fill="#663300" points="663 276 884 276 884 486 663 486"></polygon>
            <path d="M677.812941,283 L869.18701,283 C873.484091,283 877,286.34606 877,290.435389 L877,472.564611 C877,476.65406 873.484091,480 869.18701,480 L677.812941,480 C673.515909,480 670,476.65406 670,472.564611 L670,290.435389 C670,286.34606 673.515909,283 677.812941,283" id="path3397" fill="#B57829"></path>
            <polygon id="path3399" stroke="#663300" stroke-width="7.0866251" fill="#663300" points="668 325.271028 880 322 880 435.728861 668 439"></polygon>
            <polygon id="path3401" stroke="#663300" stroke-width="7.0866251" fill="#B57829" points="878 321 878 378 670 374.726332 670 324.273668 878 321"></polygon>
            <polygon id="path3403" stroke="#663300" stroke-width="7.0866251" fill="#B57829" points="878 380.297087 878 437.702904 670 441 670 377 878 380.297087"></polygon>
            <polygon id="path3405" fill-opacity="0.25" fill="#FFFFCC" points="676 286 873 286 873 292 676 292 676 286"></polygon>
            <polygon id="path3407" fill-opacity="0.5" fill="#663300" points="670 474 879 474 879 483 670 483 670 474"></polygon>
            <polygon id="path3409" fill-opacity="0.25" fill="#FFFFCC" points="673 443.382901 875 440 875 446.617099 673 450"></polygon>
            <polygon id="path3411" fill-opacity="0.5" fill="#663300" points="876 366 672 366 672 376 876 376"></polygon>
            <path d="M680.549278,299 C683.613707,299 686.098565,301.462791 686.098565,304.5 C686.098565,307.537219 683.613707,310 680.549278,310 C677.484975,310 675,307.537219 675,304.5 C675,301.462791 677.484975,299 680.549278,299 Z M866.450693,299 C869.515122,299 872,301.462791 872,304.5 C872,307.537219 869.515122,310 866.450693,310 C863.386264,310 860.901386,307.537219 860.901386,304.5 C860.901386,301.462791 863.386264,299 866.450693,299" id="path3413" fill="#663300"></path>
            <path d="M680.549278,455 C683.613707,455 686.098565,457.462791 686.098565,460.5 C686.098565,463.537219 683.613707,466 680.549278,466 C677.484975,466 675,463.537219 675,460.5 C675,457.462791 677.484975,455 680.549278,455 Z M866.450693,455 C869.515122,455 872,457.462791 872,460.5 C872,463.537219 869.515122,466 866.450693,466 C863.386264,466 860.901386,463.537219 860.901386,460.5 C860.901386,457.462791 863.386264,455 866.450693,455" id="path3415" fill="#663300"></path>
            <g id="g3447-Clipped" transform="translate(456.000000, 56.000000)" fill="#FFDB96">
                <g id="g3447" transform="translate(308.531611, 347.789748) scale(-1, 1) rotate(-180.000000) translate(-308.531611, -347.789748) translate(217.031611, 325.789748)">
                    <polygon id="path3449" points="182.276156 36.9623063 182.276156 4.12769688 0.433333333 0.850190625 0.433333333 9.73065313 123.778345 14.9030219 0.433333333 19.2127125 0.433333333 43.5174344 182.276156 36.9623063"></polygon>
                </g>
            </g>
            <g id="g3481-Clipped" transform="translate(354.000000, 104.000000)" fill="#FFDB96">
                <g id="g3481" transform="translate(410.600756, 240.558244) scale(-1, 1) rotate(-180.000000) translate(-410.600756, -240.558244) translate(319.100756, 220.558244)">
                    <polygon id="path3483" points="182.207272 39.656266 182.207272 21.7318364 6.32571076 17.4193205 182.207272 10.5193644 182.207272 0.24387766 0.433169574 0.24387766 0.433169574 36.3767593 182.207272 39.656266"></polygon>
                </g>
            </g>
            <polygon id="path3485" fill-opacity="0.5" fill="#663300" points="876 429 672 429 672 439 876 439"></polygon>
            <polygon id="path3487" fill-opacity="0.5" fill="#663300" points="878 314 670 317.214925 670 327 878 323.785075"></polygon>
            <path d="M680.549278,404 C683.613707,404 686.098565,406.462781 686.098565,409.5 C686.098565,412.537209 683.613707,415 680.549278,415 C677.484975,415 675,412.537219 675,409.5 C675,406.462781 677.484975,404 680.549278,404 Z M866.450693,404 C869.515122,404 872,406.462781 872,409.5 C872,412.537209 869.515122,415 866.450693,415 C863.386264,415 860.901386,412.537219 860.901386,409.5 C860.901386,406.462781 863.386264,404 866.450693,404" id="path3489" fill="#663300"></path>
            <path d="M680.549278,348 C683.613707,348 686.098565,350.462781 686.098565,353.5 C686.098565,356.537209 683.613707,359 680.549278,359 C677.484975,359 675,356.537219 675,353.5 C675,350.462781 677.484975,348 680.549278,348 Z M866.450693,348 C869.515122,348 872,350.462781 872,353.5 C872,356.537209 869.515122,359 866.450693,359 C863.386264,359 860.901386,356.537219 860.901386,353.5 C860.901386,350.462781 863.386264,348 866.450693,348" id="path3491" fill="#663300"></path>
            <polygon id="path3493" stroke="#663300" stroke-width="3.54325008" fill="#E6E6BA" points="762 411 853 411 853 467 762 467 762 411"></polygon>
            <line x1="771" y1="453.5" x2="844" y2="453.5" id="path3495" stroke="#663300" stroke-width="3.54325008"></line>
            <line x1="771" y1="443.5" x2="844" y2="443.5" id="path3497" stroke="#663300" stroke-width="3.54325008"></line>
            <line x1="771" y1="427.5" x2="844" y2="427.5" id="path3499" stroke="#663300" stroke-width="3.54325008"></line>
            <polygon id="path3501" fill="#663300" points="884 276 1105 276 1105 486 884 486"></polygon>
            <path d="M898.812991,283 L1090.1872,283 C1094.48409,283 1098,286.34606 1098,290.435389 L1098,472.564611 C1098,476.65406 1094.48409,480 1090.1872,480 L898.812991,480 C894.515909,480 891,476.65406 891,472.564611 L891,290.435389 C891,286.34606 894.515909,283 898.812991,283" id="path3503" fill="#AD661F"></path>
            <polygon id="path3505" stroke="#663300" stroke-width="7.0866251" points="918 308 1072 308 1072 455 918 455"></polygon>
            <polygon id="path3507" stroke="#663300" stroke-width="7.0866251" fill="#AD661F" points="1072 336 1072 426 918 426 918 336"></polygon>
            <polygon id="path3509" stroke="#663300" stroke-width="7.0866251" fill="#AD661F" points="1072 366 1072 396 918 396 918 366"></polygon>
            <polygon id="path3511" fill-opacity="0.25" fill="#FFFFCC" points="897 286 1094 286 1094 292 897 292"></polygon>
            <polygon id="path3513" fill-opacity="0.5" fill="#663300" points="891 474 1100 474 1100 483 891 483"></polygon>
            <polygon id="path3515" fill-opacity="0.25" fill="#FFFFCC" points="914 461 1075 461 1075 467 914 467"></polygon>
            <polygon id="path3517" fill-opacity="0.5" fill="#663300" points="920 310 889 310 889 319 920 319"></polygon>
            <path d="M1099.55294,455 L995,455 L887,455 M887,308 L995,308 L1103,308" id="path3519" stroke="#663300" stroke-width="7.0866251"></path>
            <path d="M1072,331 C924.666957,428.032318 1003.3028,376.243399 918,432.422963 L918,454.454642 L938.075998,455 C1066.36408,370.511027 987.213839,422.638233 1072,366.799044 L1072,331 L1072,331 Z" id="path3521" fill-opacity="0.5" fill="#663300"></path>
            <polygon id="path3523" fill-opacity="0.5" fill="#663300" points="1104 310 1073 310 1073 320 1104 320"></polygon>
            <path d="M901.549212,289 C904.613643,289 907.098619,291.462781 907.098619,294.5 C907.098619,297.537209 904.613643,300 901.549212,300 C898.484976,300 896,297.537219 896,294.5 C896,291.462791 898.484976,289 901.549212,289 Z M1087.45069,289 C1090.51512,289 1093,291.462781 1093,294.5 C1093,297.537209 1090.51512,300 1087.45069,300 C1084.38626,300 1081.90148,297.537219 1081.90148,294.5 C1081.90148,291.462791 1084.38626,289 1087.45069,289" id="path3525" fill="#663300"></path>
            <path d="M901.549212,465 C904.613643,465 907.098619,467.462783 907.098619,470.5 C907.098619,473.537217 904.613643,476 901.549212,476 C898.484976,476 896,473.537217 896,470.5 C896,467.462783 898.484976,465 901.549212,465 Z M1087.45069,465 C1090.51512,465 1093,467.462783 1093,470.5 C1093,473.537217 1090.51512,476 1087.45069,476 C1084.38626,476 1081.90148,473.537217 1081.90148,470.5 C1081.90148,467.462783 1084.38626,465 1087.45069,465" id="path3527" fill="#663300"></path>
            <polygon id="path3529" stroke="#663300" stroke-width="7.0866251" fill="#AD661F" points="1072 311 918 412.99799 918 449 1072 347.00201 1072 311"></polygon>
            <polygon id="path3531" fill-opacity="0.5" fill="#663300" points="920 309 930.133366 309 1061.86654 309 1072 309 1072 328.806752 1072 453 1061.86654 453 1061.86654 328.806752 930.133366 328.806752 930.133366 453 920 453 920 328.806752 920 309"></polygon>
            <g id="g3563-Clipped" transform="translate(671.000000, 14.000000)" fill="#FFDB96">
                <g id="g3563" transform="translate(232.669303, 394.326517) scale(-1, 1) rotate(-180.000000) translate(-232.669303, -394.326517) translate(220.669303, 351.326517)">
                    <polygon id="path3565" points="0.119569721 85.5009799 23.1391713 85.5009799 23.1391713 0.589285941 0.119569721 0.589285941"></polygon>
                </g>
            </g>
            <g id="g3597-Clipped" transform="translate(817.000000, 14.000000)" fill="#FFDB96">
                <g id="g3597" transform="translate(269.446532, 394.326517) scale(-1, 1) rotate(-180.000000) translate(-269.446532, -394.326517) translate(257.446532, 351.326517)">
                    <polygon id="path3599" points="0.597791379 85.5009799 23.6244284 85.5009799 23.6244284 0.589285941 0.597791379 0.589285941"></polygon>
                </g>
            </g>
            <g id="g3631-Clipped" transform="translate(685.000000, 8.000000)" fill="#FFDB96">
                <g id="g3631" transform="translate(290.926068, 383.326574) scale(-1, 1) rotate(-180.000000) translate(-290.926068, -383.326574) translate(245.426068, 342.326574)">
                    <polygon id="path3633" points="90.0196348 81.5979167 90.0196348 59.6721065 0.714852174 0.617013889 0.714852174 22.5428241"></polygon>
                </g>
            </g>
        </g>
    </g>
</svg>
