<?xml version="1.0" encoding="UTF-8"?>
<svg width="616px" height="254px" viewBox="0 0 616 254" version="1.1" xmlns="http://www.w3.org/2000/svg" xmlns:xlink="http://www.w3.org/1999/xlink">
    <!-- Generator: Sketch 60.1 (88133) - https://sketch.com -->
    <title>Page 1</title>
    <desc>Created with Sketch.</desc>
    <g id="Page-1" stroke="none" stroke-width="1" fill="none" fill-rule="evenodd">
        <g id="neutral" fill-rule="nonzero">
            <ellipse id="Oval" fill="#FFFFFF" cx="52.5" cy="98.5" rx="51.5" ry="46.5"></ellipse>
            <ellipse id="Oval" fill="#FFFFFF" cx="255.5" cy="98.5" rx="51.5" ry="46.5"></ellipse>
            <ellipse id="a" fill-opacity="0.45" fill="#009EE1" cx="58.5" cy="121" rx="23.5" ry="34"></ellipse>
            <ellipse id="Oval" fill-opacity="0.45" fill="#009EE1" cx="252.5" cy="121" rx="23.5" ry="34"></ellipse>
            <g id="Group" fill="#000000">
                <path d="M251.614173,35.3937008 C220.471008,35.3937008 195.228346,62.1659843 195.228346,95.1968504 C195.228346,128.227717 220.471008,155 251.614173,155 C282.757339,155 308,128.227717 308,95.1968504 C308,62.1659843 282.757339,35.3937008 251.614173,35.3937008 Z M235.503591,120.826772 C235.503591,111.388736 242.71552,103.740157 251.614173,103.740157 C260.512827,103.740157 267.724756,111.389102 267.724756,120.826772 C267.724756,130.264807 260.512827,137.913386 251.614173,137.913386 C242.71552,137.913386 235.503591,130.264441 235.503591,120.826772 Z M283.834126,120.829775 L283.834126,120.826772 C283.834126,101.952165 269.409055,86.6535433 251.614173,86.6535433 C233.818079,86.6535433 219.39422,101.952165 219.39422,120.826772 L219.39422,120.829775 C214.337443,113.690377 211.339414,104.815956 211.339414,95.1961924 C211.339414,71.6020192 229.36954,52.479657 251.615871,52.479657 C273.862202,52.479657 291.892328,71.6020192 291.892328,95.1961924 C291.891384,104.815468 288.893329,113.688791 283.835581,120.829775 L283.834126,120.829775 Z" id="c"></path>
                <path d="M112.771654,95.1968504 C112.771654,62.1659843 87.5289921,35.3937008 56.3858268,35.3937008 C25.2426614,35.3937008 0,62.1659843 0,95.1968504 C0,128.227717 25.2426614,155 56.3858268,155 C87.5289921,155 112.771654,128.227717 112.771654,95.1968504 Z M16.1093701,95.1968504 C16.1093701,71.6026772 34.1394961,52.480315 56.3858268,52.480315 C78.6321575,52.480315 96.6622835,71.6026772 96.6622835,95.1968504 C96.6622835,104.81515 93.6642551,113.689449 88.6074772,120.830433 L88.6074772,120.82743 C88.6074772,101.952823 74.1824063,86.6542013 56.3875244,86.6542013 C38.5914299,86.6542013 24.1675717,101.952823 24.1675717,120.82743 L24.1675717,120.830433 C19.1088535,113.690059 16.1108252,104.816614 16.1108252,95.1968504 L16.1093701,95.1968504 Z M40.2752441,120.826772 C40.2752441,111.388736 47.4871732,103.740157 56.3858268,103.740157 C65.2844803,103.740157 72.4964094,111.389102 72.4964094,120.826772 C72.4964094,130.264807 65.2844803,137.913386 56.3858268,137.913386 C47.4871732,137.913386 40.2752441,130.264441 40.2752441,120.826772 Z" id="Shape"></path>
                <path d="M28.5688189,30.3836614 C44.6005827,13.2604331 70.5962677,13.2604331 86.6292441,30.3836614 C89.8364457,33.808185 95.0355827,33.808185 98.2418142,30.3836614 C101.448046,26.9580394 101.448046,21.4050118 98.2418142,17.98 C75.7966173,-5.99374016 39.4029008,-5.99374016 16.9564913,17.98 C13.7502598,21.4045236 13.7502598,26.9575512 16.9564913,30.3836614 C20.1636929,33.8092835 25.3628299,33.8092835 28.5690614,30.3836614 L28.5688189,30.3836614 Z" id="b"></path>
                <path d="M222.584567,30.3836614 C238.616331,13.2604331 264.612016,13.2604331 280.64378,30.3836614 C283.850011,33.808185 289.049027,33.808185 292.256228,30.3836614 C295.46246,26.9580394 295.46246,21.4050118 292.256228,17.98 C269.811031,-5.99374016 233.417315,-5.99374016 210.972118,17.98 C207.764917,21.4045236 207.764917,26.9575512 210.972118,30.3836614 C214.17932,33.8092835 219.378335,33.8092835 222.584567,30.3836614 Z" id="Path"></path>
            </g>
            <path d="M84,247.770621 C103.587966,247.770621 123.192893,248.647824 142.762686,247.770621 C157.846195,247.094458 180.410882,229.586284 187.830272,243.116268 L192.722902,244.278173 C193.65201,245.972444 191.977704,248.092683 191.605099,250" id="Path" stroke="#000000" stroke-width="10" fill="#000000"></path>
        </g>
        <g id="sick" transform="translate(308.000000, 0.000000)" fill-rule="nonzero">
            <ellipse id="Oval" fill-opacity="0.45" fill="#009EE1" cx="28.5" cy="128" rx="19.5" ry="28"></ellipse>
            <g id="Group" fill="#000000">
                <g id="a-link" transform="translate(0.000000, 75.000000)">
                    <path d="M35.887,3.818 C33.0464,-1.2728 25.9779,-1.2728 23.136,3.816203 L7.485,31.847203 C-2.62,48.620203 -2.631,68.493203 8.2919,81.587203 C19.8709,95.470203 39.1439,95.470203 50.7239,81.587203 C61.6059,68.541203 61.5959,51.218203 51.64138,32.053203 L35.88738,3.817203 L35.887,3.818 Z M39.5863,71.54 C33.8853,78.3748 25.1293,78.3748 19.4293,71.54 C13.0925,63.9433 13.0985,51.408 20.10834,39.768 L29.50864,22.937 L38.77844,39.547 C45.95674,53.373 45.96274,63.896 39.5862,71.54 L39.5863,71.54 Z" id="a"></path>
                </g>
                <g id="a-link" transform="translate(0.000000, 75.000000)">
                    <path d="M35.887,3.818 C33.0464,-1.2728 25.9779,-1.2728 23.136,3.816203 L7.485,31.847203 C-2.62,48.620203 -2.631,68.493203 8.2919,81.587203 C19.8709,95.470203 39.1439,95.470203 50.7239,81.587203 C61.6059,68.541203 61.5959,51.218203 51.64138,32.053203 L35.88738,3.817203 L35.887,3.818 Z M39.5863,71.54 C33.8853,78.3748 25.1293,78.3748 19.4293,71.54 C13.0925,63.9433 13.0985,51.408 20.10834,39.768 L29.50864,22.937 L38.77844,39.547 C45.95674,53.373 45.96274,63.896 39.5862,71.54 L39.5863,71.54 Z" id="a"></path>
                </g>
                <path d="M152.15,103.59 C156.4834,98.4405 152.703,90.381 146.1576,90.816 C122.2086,92.4052 88.8246,72.444 87.7136,54.208 C87.45478,49.9637 83.9556,46.7419 79.8983,47.0126 C75.8409,47.28334 72.761,50.9438 73.0199,55.1881 C74.3925,77.7101 100.6189,97.8821 126.9229,104.2381 C112.9009,110.8983 95.7609,110.1177 85.2309,100.4225 C82.1786,97.6122 77.5268,97.9218 74.8399,101.11469 C72.1534,104.30759 72.4493,109.17369 75.5016,111.98369 C96.4986,131.31669 132.9136,126.44869 152.1496,103.58979 L152.15,103.59 Z" id="Path"></path>
                <path d="M295.77,100.426 C285.24,110.1222 268.1,110.903 254.078,104.2416 C280.382,97.8855 306.609,77.7136 307.981,55.1916 C308.23982,50.9473 305.1599,47.2869 301.1025,47.0161 C297.0451,46.74536 293.5459,49.9672 293.287,54.2115 C292.1758,72.4485 258.792,92.4085 234.842,90.8195 C228.2973,90.38541 224.517,98.4445 228.8504,103.5935 C248.0864,126.4525 284.5024,131.3205 305.4984,111.9865 C308.5499,109.1762 308.8466,104.3101 306.16011,101.1175 C303.47271,97.9255 298.82091,97.6159 295.76911,100.42621 L295.77,100.426 Z" id="Path"></path>
                <path d="M117.28,55 C141.442,55 160.995,34.297 160.995,8.714 C160.995,4.4533 157.7326,1 153.7094,1 C149.6854,1 146.4238,4.4534 146.4238,8.714 C146.4238,25.776 133.3948,39.571 117.2808,39.571 C113.2568,39.571 109.9952,43.0244 109.9952,47.285 C109.9952,51.5457 113.2559,55 117.2799,55 L117.28,55 Z" id="Path"></path>
                <path d="M263.71,55 C267.734,55 270.9956,51.5457 270.9956,47.2858 C270.9956,43.026 267.734,39.5716 263.71,39.5716 C247.596,39.5716 234.567,25.7756 234.567,8.7136 C234.567,4.4529 231.3054,0.9994 227.2814,0.9994 C223.2574,0.9994 219.9958,4.4528 219.9958,8.7136 C219.994946,34.2956 239.5478,55 263.7098,55 L263.71,55 Z" id="c"></path>
                <path d="M281.74,236.8 L259.817,221.301 C257.3627,219.5655 254.1642,219.5655 251.7099,221.301 L233.8409,233.934 L215.9709,221.301 C213.5166,219.5655 210.3181,219.5655 207.8638,221.301 L189.9948,233.934 L172.1248,221.301 C169.6705,219.5655 166.472,219.5655 164.0177,221.301 L146.1487,233.934 L128.2787,221.301 C125.8244,219.5655 122.6259,219.5655 120.1716,221.301 L98.2486,236.8 C94.8908,239.1739 93.9831,243.9853 96.2216,247.547 C98.4601,251.1079 102.9971,252.0705 106.3556,249.6966 L124.2256,237.0636 L142.0956,249.6966 C144.5499,251.4321 147.7484,251.4321 150.2027,249.6966 L168.0727,237.0636 L185.9427,249.6966 C188.397,251.4321 191.5955,251.4321 194.0498,249.6966 L211.9198,237.0636 L229.7898,249.6966 C232.2441,251.4321 235.4418,251.4321 237.8969,249.6966 L255.7669,237.0636 L273.6369,249.6966 C276.9947,252.0705 281.5317,251.1088 283.7709,247.547 C286.006,243.9852 285.0991,239.1739 281.7405,236.8 L281.74,236.8 Z" id="Path"></path>
            </g>
        </g>
    </g>
</svg>
