<?xml version="1.0" encoding="UTF-8"?>
<svg width="803px" height="831px" viewBox="0 0 803 831" version="1.1" xmlns="http://www.w3.org/2000/svg" xmlns:xlink="http://www.w3.org/1999/xlink">
    <!-- Generator: Sketch 60.1 (88133) - https://sketch.com -->
    <title>face</title>
    <desc>Created with Sketch.</desc>
    <defs>
        <path d="M35.8868667,77.8183585 C33.0463116,72.7275134 25.9777528,72.7275134 23.1354699,77.8165615 L7.4847719,105.847657 C-2.62045084,122.620671 -2.63081783,142.493476 8.29166923,155.588072 C19.8707323,169.470643 39.1438291,169.470643 50.7237561,155.588072 C61.6056391,142.541995 61.596136,125.219105 51.6412346,106.05431 L35.8868667,77.8183585 Z M39.586154,145.540256 C33.8851738,152.375071 25.1293875,152.375071 19.4292713,145.540256 C13.0924491,137.943522 13.0984966,125.408686 20.1083091,113.767848 L29.5085766,96.9364318 L38.7783928,113.546819 C45.9566689,127.372786 45.9627163,137.895902 39.586154,145.540256 Z" id="path-1"></path>
        <filter x="-3.4%" y="-2.2%" width="106.8%" height="104.3%" filterUnits="objectBoundingBox" id="filter-2">
            <feGaussianBlur stdDeviation="1.5" in="SourceAlpha" result="shadowBlurInner1"></feGaussianBlur>
            <feOffset dx="0" dy="1" in="shadowBlurInner1" result="shadowOffsetInner1"></feOffset>
            <feComposite in="shadowOffsetInner1" in2="SourceAlpha" operator="arithmetic" k2="-1" k3="1" result="shadowInnerInner1"></feComposite>
            <feColorMatrix values="0 0 0 0 0   0 0 0 0 0   0 0 0 0 0  0 0 0 0.5 0" type="matrix" in="shadowInnerInner1"></feColorMatrix>
        </filter>
    </defs>
    <g id="Page-1" stroke="none" stroke-width="1" fill="none" fill-rule="evenodd">
        <circle id="Oval" stroke="#979797" fill="#EFCAB7" cx="402" cy="415" r="249"></circle>
        <ellipse id="Oval" fill-opacity="0.351215923" fill="#E52106" cx="270" cy="514" rx="45" ry="43"></ellipse>
        <ellipse id="Oval" fill-opacity="0.351215923" fill="#E52106" cx="532" cy="504" rx="45" ry="43"></ellipse>
        <path d="M401.472324,5 C646.020173,5 797.944647,195.395442 798,501.842119 C798,646.799039 709.159054,764.225035 626.240839,782.953919 C620.650225,784.203701 614.709044,782.918211 610.280835,779.347403 C605.889527,775.758742 603.361758,770.438239 603.62007,764.849926 L603.62007,764.849926 L604.118244,752.191414 C588.508807,781.489888 570.685265,809.931367 554.965123,822.036404 C549.485214,826.214248 542.067963,827.124804 535.720864,824.268158 C529.373764,821.447221 525.27767,815.376848 525.019358,808.610169 C524.982457,807.396094 521.956514,732.551975 494.1326,673.437261 C464.943321,682.72136 433.872054,687.791906 401.952046,687.791906 C369.663021,687.791906 338.333442,682.632089 308.8674,673.223012 C280.969683,732.391288 278.017543,807.449656 277.980642,808.663731 C277.74078,815.430411 273.626236,821.500783 267.279136,824.321721 C264.788269,825.464379 262.168245,826 259.52977,826 C255.396775,826 251.356034,824.678801 248.034877,822.089966 C232.333186,809.967076 214.454292,781.54345 198.881756,752.244977 L198.881756,752.244977 L199.361479,764.903488 C199.60134,770.509656 197.110473,775.865866 192.682263,779.400966 C188.254054,782.953919 182.331325,784.292971 176.759161,783.007481 C95.501524,764.671386 5,644.710117 5,501.895681 C5,195.395442 156.906024,5 401.472324,5 Z M474.40428,282 L474.40428,329.542953 C474.40428,339.441768 466.160361,347.443161 455.961508,347.443161 L455.961508,347.443161 L190.10894,347.443161 C189.408115,353.779835 189.020817,360.22391 189.020817,366.882787 C189.020817,387.289024 192.322073,407.856364 198.315974,427.850896 C191.861004,420.314908 186.235958,412.420917 181.274852,404.204721 C163.348477,404.258422 149,420.332809 149,440.094638 C149,459.945969 163.385363,476.020356 181.348623,476.020356 C185.830217,476.020356 190.090497,475.017945 193.96348,473.192123 C223.287488,556.195389 305.210284,616.035784 401.979512,616 C498.601198,616 580.413337,556.28489 609.848002,473.424826 C613.536557,475.017945 617.446425,476.020356 621.651377,476.020356 C639.614637,476.020356 654,459.910169 654,440.094638 C654,420.279108 639.651523,404.258422 621.725148,404.204721 C616.764042,412.420917 611.157439,420.279108 604.684026,427.832996 C610.677927,407.856364 613.979183,387.306925 613.979183,366.864887 C613.979183,360.22391 613.555,353.779835 612.909503,347.443161 L612.909503,347.443161 L545.667154,347.443161 C540.576948,347.443161 535.689614,345.402537 532.222372,341.822496 L532.222372,341.822496 L474.40428,282 Z" id="Shape" stroke="#866251" stroke-width="10" fill="#D9B380" fill-rule="nonzero"></path>
        <ellipse id="Oval" fill-opacity="0.45" fill="#009EE1" cx="244.5" cy="443" rx="19.5" ry="28"></ellipse>
        <g id="sick-svgrepo-com" transform="translate(216.000000, 316.000000)" fill-rule="nonzero">
            <g id="Shape">
                <use fill="#000000" xlink:href="#path-1"></use>
                <use fill="black" fill-opacity="1" filter="url(#filter-2)" xlink:href="#path-1"></use>
            </g>
            <path d="M152.145909,102.593482 C156.479334,97.4439929 152.69891,89.3849437 146.15348,89.8190313 C122.20447,91.4082794 88.8207931,71.4474674 87.7096143,53.2112739 C87.4507993,48.9669616 83.9516213,45.7451469 79.8942656,46.0158876 C75.83691,46.2866283 72.7570121,49.9470431 73.0158271,54.1913554 C74.388409,76.7133748 100.61499,96.8853645 126.918353,103.241455 C112.896622,109.901677 95.756171,109.121041 85.2267162,99.4258151 C82.1744253,96.6155263 77.522658,96.9250732 74.8361589,100.118009 C72.1496597,103.310945 72.4455715,108.177058 75.4978624,110.987347 C96.4946563,130.320041 132.909919,125.452122 152.145909,102.593482 Z" id="Path" fill="#000000"></path>
            <path d="M295.773407,99.4259358 C285.243805,109.122086 268.103113,109.902724 254.081186,103.241584 C280.384917,96.8854795 306.611866,76.7134442 307.984467,54.1913739 C308.243286,49.947052 305.163345,46.286629 301.105932,46.0158876 C297.04852,45.7451463 293.549293,48.9669683 293.290474,53.2112902 C292.17928,71.4484274 258.795135,91.408382 234.84579,89.8191303 C228.301131,89.3850417 224.520654,97.4441092 228.85414,102.59361 C248.090399,125.452302 284.506172,130.320231 305.502397,110.986591 C308.553868,108.176296 308.850647,103.310172 306.16411,100.117229 C303.47671,96.9251882 298.824878,96.6156406 295.773407,99.4259358 Z" id="Path" fill="#000000"></path>
            <path d="M117.284738,54 C141.446812,54 161,33.2969715 161,7.71402742 C161,3.45336749 157.737578,0 153.714408,0 C149.690384,0 146.428815,3.45336749 146.428815,7.71402742 C146.428815,24.7756516 133.399618,38.5710411 117.285592,38.5710411 C113.261568,38.5710411 110,42.0244086 110,46.2850686 C110,50.5457285 113.260715,54 117.284738,54 Z" id="Path" fill="#000000"></path>
            <path d="M263.714408,54 C267.738432,54 271,50.5456707 271,46.2858434 C271,42.0260162 267.738432,38.5716869 263.714408,38.5716869 C247.600382,38.5716869 234.571185,24.7760664 234.571185,7.71415657 C234.571185,3.4534253 231.309616,0 227.285592,0 C223.261568,0 220,3.4534253 220,7.71415657 C219.999146,33.2966249 239.552334,54 263.714408,54 Z" id="Path" fill="#000000"></path>
            <path d="M281.744064,235.801003 L259.821306,220.301606 C257.366985,218.566131 254.168489,218.566131 251.714167,220.301606 L233.845407,232.934881 L215.97579,220.301606 C213.521469,218.566131 210.322972,218.566131 207.868651,220.301606 L189.999891,232.934881 L172.130274,220.301606 C169.675952,218.566131 166.477456,218.566131 164.023135,220.301606 L146.154374,232.934881 L128.284757,220.301606 C125.830436,218.566131 122.63194,218.566131 120.177619,220.301606 L98.2548604,235.801003 C94.8970817,238.174907 93.9893425,242.986286 96.2278617,246.548051 C98.4663808,250.108907 103.003364,251.071546 106.361999,248.697642 L124.231616,236.064366 L142.101233,248.697642 C144.555554,250.433116 147.754051,250.433116 150.208372,248.697642 L168.077989,236.064366 L185.947606,248.697642 C188.401927,250.433116 191.600423,250.433116 194.054744,248.697642 L211.924361,236.064366 L229.793978,248.697642 C232.2483,250.433116 235.445939,250.433116 237.901117,248.697642 L255.770734,236.064366 L273.640351,248.697642 C276.99813,251.071546 281.535113,250.109815 283.774489,246.548051 C286.009582,242.986286 285.102699,238.174907 281.744064,235.801003 Z" id="Path" fill="#000000"></path>
        </g>
        <ellipse id="Oval" fill="#FFE8B9" cx="391.5" cy="38" rx="103.5" ry="26"></ellipse>
    </g>
</svg>
