<?xml version="1.0" encoding="UTF-8"?>
<svg width="803px" height="831px" viewBox="0 0 803 831" version="1.1" xmlns="http://www.w3.org/2000/svg" xmlns:xlink="http://www.w3.org/1999/xlink">
    <!-- Generator: Sketch 60.1 (88133) - https://sketch.com -->
    <title>face</title>
    <desc>Created with Sketch.</desc>
    <g id="Page-1" stroke="none" stroke-width="1" fill="none" fill-rule="evenodd">
        <circle id="Oval" stroke="#979797" fill="#EFCAB7" cx="402" cy="415" r="249"></circle>
        <ellipse id="Oval" fill-opacity="0.351215923" fill="#E52106" cx="270" cy="514" rx="45" ry="43"></ellipse>
        <ellipse id="Oval" fill-opacity="0.351215923" fill="#E52106" cx="532" cy="504" rx="45" ry="43"></ellipse>
        <path d="M401.472324,5 C646.020173,5 797.944647,195.395442 798,501.842119 C798,646.799039 709.159054,764.225035 626.240839,782.953919 C620.650225,784.203701 614.709044,782.918211 610.280835,779.347403 C605.889527,775.758742 603.361758,770.438239 603.62007,764.849926 L603.62007,764.849926 L604.118244,752.191414 C588.508807,781.489888 570.685265,809.931367 554.965123,822.036404 C549.485214,826.214248 542.067963,827.124804 535.720864,824.268158 C529.373764,821.447221 525.27767,815.376848 525.019358,808.610169 C524.982457,807.396094 521.956514,732.551975 494.1326,673.437261 C464.943321,682.72136 433.872054,687.791906 401.952046,687.791906 C369.663021,687.791906 338.333442,682.632089 308.8674,673.223012 C280.969683,732.391288 278.017543,807.449656 277.980642,808.663731 C277.74078,815.430411 273.626236,821.500783 267.279136,824.321721 C264.788269,825.464379 262.168245,826 259.52977,826 C255.396775,826 251.356034,824.678801 248.034877,822.089966 C232.333186,809.967076 214.454292,781.54345 198.881756,752.244977 L198.881756,752.244977 L199.361479,764.903488 C199.60134,770.509656 197.110473,775.865866 192.682263,779.400966 C188.254054,782.953919 182.331325,784.292971 176.759161,783.007481 C95.501524,764.671386 5,644.710117 5,501.895681 C5,195.395442 156.906024,5 401.472324,5 Z M474.40428,282 L474.40428,329.542953 C474.40428,339.441768 466.160361,347.443161 455.961508,347.443161 L455.961508,347.443161 L190.10894,347.443161 C189.408115,353.779835 189.020817,360.22391 189.020817,366.882787 C189.020817,387.289024 192.322073,407.856364 198.315974,427.850896 C191.861004,420.314908 186.235958,412.420917 181.274852,404.204721 C163.348477,404.258422 149,420.332809 149,440.094638 C149,459.945969 163.385363,476.020356 181.348623,476.020356 C185.830217,476.020356 190.090497,475.017945 193.96348,473.192123 C223.287488,556.195389 305.210284,616.035784 401.979512,616 C498.601198,616 580.413337,556.28489 609.848002,473.424826 C613.536557,475.017945 617.446425,476.020356 621.651377,476.020356 C639.614637,476.020356 654,459.910169 654,440.094638 C654,420.279108 639.651523,404.258422 621.725148,404.204721 C616.764042,412.420917 611.157439,420.279108 604.684026,427.832996 C610.677927,407.856364 613.979183,387.306925 613.979183,366.864887 C613.979183,360.22391 613.555,353.779835 612.909503,347.443161 L612.909503,347.443161 L545.667154,347.443161 C540.576948,347.443161 535.689614,345.402537 532.222372,341.822496 L532.222372,341.822496 L474.40428,282 Z" id="Shape" stroke="#866251" stroke-width="10" fill="#D9B380" fill-rule="nonzero"></path>
        <ellipse id="Oval" fill="#FFFFFF" cx="324.5" cy="411" rx="46.5" ry="38"></ellipse>
        <ellipse id="Oval" fill="#FFFFFF" cx="484.5" cy="411" rx="46.5" ry="38"></ellipse>
        <ellipse id="Oval" fill-opacity="0.45" fill="#009EE1" cx="326.5" cy="429" rx="19.5" ry="28"></ellipse>
        <ellipse id="Oval" fill-opacity="0.45" fill="#009EE1" cx="486.5" cy="429" rx="19.5" ry="28"></ellipse>
        <ellipse id="Oval" fill="#FFE8B9" cx="391.5" cy="38" rx="103.5" ry="26"></ellipse>
        <g id="Group" transform="translate(278.000000, 330.000000)" fill="#000000" fill-rule="nonzero">
            <path d="M207.5,29 C181.81691,29 161,50.936099 161,78 C161,105.063901 181.81691,127 207.5,127 C233.18309,127 254,105.063901 254,78 C254,50.936099 233.18309,29 207.5,29 Z M194.213952,99.0001172 C194.213952,91.2669881 200.161418,84.9997656 207.5,84.9997656 C214.838582,84.9997656 220.786048,91.2669881 220.786048,99.0001172 C220.786048,106.733246 214.838582,113.000469 207.5,113.000469 C200.161418,113.000469 194.213952,106.733246 194.213952,99.0001172 Z M234.071317,99.0025781 C234.071317,99.0017578 234.071317,99.0009375 234.071317,99.0001172 C234.071317,83.5346793 222.175606,71.0002344 207.5,71.0002344 C192.823615,71.0002344 180.928683,83.5354996 180.928683,99.0001172 C180.928683,99.0009375 180.928683,99.0017578 180.928683,99.0025781 C176.75845,93.1528971 174.286048,85.8816065 174.286048,78 C174.286048,58.6675874 189.154713,42.9995312 207.500778,42.9995312 C225.846843,42.9995312 240.715509,58.6675874 240.715509,78 C240.714731,85.8816065 238.242328,93.1520767 234.071317,99.0025781 Z" id="Shape"></path>
            <path d="M93,78 C93,50.936099 72.1830897,29 46.5,29 C20.8169103,29 0,50.936099 0,78 C0,105.063901 20.8169103,127 46.5,127 C72.1830897,127 93,105.063901 93,78 Z M13.2852694,78 C13.2852694,58.6675874 28.153935,42.9995312 46.5,42.9995312 C64.846065,42.9995312 79.7147306,58.6675874 79.7147306,78 C79.7147306,85.8807862 77.2423284,93.1520767 73.0720958,99.0025781 C73.0720958,99.0017578 73.0720958,99.0009375 73.0720958,99.0001172 C73.0720958,83.5346793 61.1763849,71.0002344 46.5007785,71.0002344 C31.8243936,71.0002344 19.9294611,83.5354996 19.9294611,99.0001172 C19.9294611,99.0009375 19.9294611,99.0017578 19.9294611,99.0025781 C15.7576716,93.1520767 13.2852694,85.8816065 13.2852694,78 Z M33.2139521,99.0001172 C33.2139521,91.2669881 39.1614183,84.9997656 46.5,84.9997656 C53.8385817,84.9997656 59.7860479,91.2669881 59.7860479,99.0001172 C59.7860479,106.733246 53.8385817,113.000469 46.5,113.000469 C39.1614183,113.000469 33.2139521,106.733246 33.2139521,99.0001172 Z" id="Shape"></path>
            <path d="M23.5596897,24.894931 C36.7810799,10.8645058 58.2189201,10.8645058 71.4403103,24.894931 C74.0852231,27.7008476 78.3727912,27.7008476 81.0169105,24.894931 C83.6610298,22.0881722 83.6610298,17.538242 81.0169105,14.7323254 C62.5064881,-4.91077513 32.4935119,-4.91077513 13.9830895,14.7323254 C11.3389702,17.538242 11.3389702,22.0881722 13.9830895,24.894931 C16.6280024,27.7016897 20.9155704,27.7016897 23.5596897,24.894931 Z" id="Path"></path>
            <path d="M183.560188,24.894931 C196.781467,10.8645058 218.219128,10.8645058 231.440407,24.894931 C234.084504,27.7008476 238.372036,27.7008476 241.016927,24.894931 C243.661024,22.0881722 243.661024,17.538242 241.016927,14.7323254 C222.50666,-4.91077513 192.493935,-4.91077513 173.983668,14.7323254 C171.338777,17.538242 171.338777,22.0881722 173.983668,24.894931 C176.628559,27.7016897 180.916091,27.7016897 183.560188,24.894931 Z" id="Path"></path>
        </g>
        <path d="M347.340343,533.241491 C363.507899,533.241491 379.690775,533.945165 395.843011,533.241491 C408.293264,532.699094 426.918283,518.654331 433.0423,529.507875 L437.080659,530.439929 C437.847545,531.799075 436.465565,533.499867 436.158018,535.029836" id="Path-2" stroke="#000000" stroke-width="10"></path>
    </g>
</svg>
