<?xml version="1.0" encoding="UTF-8"?>
<svg version="1.1" viewBox="0 0 823 851" xmlns="http://www.w3.org/2000/svg">
    <g fill-rule="evenodd">
        <circle id="Oval" cx="412" cy="425" r="249" fill="#EFCAB7" stroke="#979797"/>
        <ellipse id="Oval" cx="280" cy="524" rx="45" ry="43" fill="#E52106" fill-opacity=".35122"/>
        <ellipse id="a" cx="542" cy="514" rx="45" ry="43" fill="#E52106" fill-opacity=".35122"/>
        <path d="m411.47 15c244.55 0 396.47 190.4 396.53 496.84 0 144.96-88.841 262.38-171.76 281.11-5.5906 1.2498-11.532-0.035708-15.96-3.6065-4.3913-3.5887-6.9191-8.9092-6.6608-14.497l0.49817-12.659c-15.609 29.298-33.433 57.74-49.153 69.845-5.4799 4.1778-12.897 5.0884-19.244 2.2318-6.3471-2.8209-10.443-8.8913-10.702-15.658-0.036901-1.2141-3.0628-76.058-30.887-135.17-29.189 9.2841-60.261 14.355-92.181 14.355-32.289 0-63.619-5.1598-93.085-14.569-27.898 59.168-30.85 134.23-30.887 135.44-0.23986 6.7667-4.3544 12.837-10.702 15.658-2.4909 1.1427-5.1109 1.6783-7.7494 1.6783-4.133 0-8.1737-1.3212-11.495-3.91-15.702-12.123-33.581-40.547-49.153-69.845l0.47972 12.659c0.23986 5.6062-2.251 10.962-6.6792 14.497-4.4282 3.553-10.351 4.892-15.923 3.6065-81.258-18.336-171.76-138.3-171.76-281.11 0-306.5 151.91-496.9 396.47-496.9zm72.932 277v47.543c0 9.8988-8.2439 17.9-18.443 17.9h-265.85c-0.70082 6.3367-1.0881 12.781-1.0881 19.44 0 20.406 3.3013 40.974 9.2952 60.968-6.455-7.536-12.08-15.43-17.041-23.646-17.926 0.053701-32.275 16.128-32.275 35.89 0 19.851 14.385 35.926 32.349 35.926 4.4816 0 8.7419-1.0024 12.615-2.8282 29.324 83.003 111.25 142.84 208.02 142.81 96.622 0 178.43-59.715 207.87-142.58 3.6886 1.5931 7.5984 2.5955 11.803 2.5955 17.963 0 32.349-16.11 32.349-35.926 0-19.816-14.348-35.836-32.275-35.89-4.9611 8.2162-10.568 16.074-17.041 23.628 5.9939-19.977 9.2952-40.526 9.2952-60.968 0-6.641-0.42418-13.085-1.0697-19.422h-67.242c-5.0902 0-9.9775-2.0406-13.445-5.6207l-57.818-59.822z" fill="#D9B380" fill-rule="nonzero" stroke="#866251" stroke-width="30"/>
        <ellipse cx="401.5" cy="48" rx="103.5" ry="26" fill="#FFE8B9"/>
    </g>
</svg>
