<?xml version="1.0" encoding="UTF-8"?>
<svg version="1.1" viewBox="0 0 803 831" xmlns="http://www.w3.org/2000/svg">
    <g fill-rule="evenodd">
        <ellipse id="Oval" cx="324.5" cy="411" rx="46.5" ry="38" fill="#fff"/>
        <ellipse id="Oval" cx="484.5" cy="411" rx="46.5" ry="38" fill="#fff"/>
        <ellipse id="a" cx="326.5" cy="429" rx="19.5" ry="28" fill="#009EE1" fill-opacity=".45"/>
        <ellipse cx="486.5" cy="429" rx="19.5" ry="28" fill="#009EE1" fill-opacity=".45"/>
        <g transform="translate(278 330)" fill-rule="nonzero">
            <path id="c" d="m207.5 29c-25.683 0-46.5 21.936-46.5 49s20.817 49 46.5 49 46.5-21.936 46.5-49-20.817-49-46.5-49zm-13.286 70c0-7.7331 5.9475-14 13.286-14s13.286 6.2672 13.286 14c0 7.7331-5.9475 14-13.286 14s-13.286-6.2672-13.286-14zm39.857 0.0024609v-0.0024609c0-15.465-11.896-28-26.571-28-14.676 0-26.571 12.535-26.571 28v0.0024609c-4.1702-5.8497-6.6426-13.121-6.6426-21.003 0-19.332 14.869-35 33.215-35s33.215 15.668 33.215 35c-7.78e-4 7.8816-2.4732 15.152-6.6442 21.003z"/>
            <path d="m93 78c0-27.064-20.817-49-46.5-49s-46.5 21.936-46.5 49 20.817 49 46.5 49 46.5-21.936 46.5-49zm-79.715 0c0-19.332 14.869-35 33.215-35s33.215 15.668 33.215 35c0 7.8808-2.4724 15.152-6.6426 21.003v-0.0024609c0-15.465-11.896-28-26.571-28-14.676 0-26.571 12.535-26.571 28v0.0024609c-4.1718-5.8505-6.6442-13.121-6.6442-21.003zm19.929 21c0-7.7331 5.9475-14 13.286-14s13.286 6.2672 13.286 14c0 7.7331-5.9475 14-13.286 14s-13.286-6.2672-13.286-14z"/>
            <path id="b" d="m23.56 24.895c13.221-14.03 34.659-14.03 47.881 0 2.6449 2.8059 6.9325 2.8059 9.5766 0 2.6441-2.8068 2.6441-7.3567 0-10.163-18.51-19.643-48.523-19.643-67.034 0-2.6441 2.8059-2.6441 7.3558 0 10.163 2.6449 2.8068 6.9325 2.8068 9.5766 0z"/>
            <path d="m183.56 24.895c13.221-14.03 34.659-14.03 47.88 0 2.6441 2.8059 6.9316 2.8059 9.5765 0 2.6441-2.8068 2.6441-7.3567 0-10.163-18.51-19.643-48.523-19.643-67.033 0-2.6449 2.8059-2.6449 7.3558 0 10.163 2.6449 2.8068 6.9324 2.8068 9.5765 0z"/>
        </g>
        <path d="m347.34 533.24c16.168 0 32.35 0.70367 48.503 0 12.45-0.5424 31.075-14.587 37.199-3.7336l4.0384 0.93205c0.76689 1.3591-0.61509 3.0599-0.92264 4.5899" stroke="#000" stroke-width="10"/>
    </g>
</svg>
