<?xml version="1.0" encoding="UTF-8"?>
<svg version="1.1" viewBox="0 0 803 831" xmlns="http://www.w3.org/2000/svg" xmlns:xlink="http://www.w3.org/1999/xlink">
	<defs>
		<path id="a" d="m35.887 77.818c-2.8406-5.0908-9.9091-5.0908-12.751-0.001797l-15.651 28.031c-10.105 16.773-10.116 36.646 0.8069 49.74 11.579 13.883 30.852 13.883 42.432 0 10.882-13.046 10.872-30.369 0.91748-49.534l-15.754-28.236zm3.6993 67.722c-5.701 6.8348-14.457 6.8348-20.157 0-6.3368-7.5967-6.3308-20.132 0.67904-31.772l9.4003-16.831 9.2698 16.61c7.1783 13.826 7.1843 24.349 0.80776 31.993z"/>
		<filter id="b" x="-3.4%" y="-2.2%" width="106.8%" height="104.3%">
			<feGaussianBlur in="SourceAlpha" result="shadowBlurInner1" stdDeviation="1.5"/>
			<feOffset dx="0" dy="1" in="shadowBlurInner1" result="shadowOffsetInner1"/>
			<feComposite in="shadowOffsetInner1" in2="SourceAlpha" k2="-1" k3="1" operator="arithmetic" result="shadowInnerInner1"/>
			<feColorMatrix in="shadowInnerInner1" values="0 0 0 0 0   0 0 0 0 0   0 0 0 0 0  0 0 0 0.5 0"/>
		</filter>
	</defs>
	<g fill="none" fill-rule="evenodd">
		<ellipse cx="244.5" cy="443" rx="19.5" ry="28" fill="#009EE1" fill-opacity=".45"/>
		<g transform="translate(216 316)" fill-rule="nonzero">
			<use fill="#000000" xlink:href="#a"/>
			<use fill="black" filter="url(#b)" xlink:href="#a"/>
			<path id="Path" d="m152.15 102.59c4.3334-5.1495 0.553-13.209-5.9924-12.774-23.949 1.5892-57.333-18.372-58.444-36.608-0.25882-4.2443-3.758-7.4661-7.8153-7.1954-4.0574 0.27074-7.1373 3.9312-6.8784 8.1755 1.3726 22.522 27.599 42.694 53.903 49.05-14.022 6.6602-31.162 5.8796-41.692-3.8156-3.0523-2.8103-7.7041-2.5007-10.391 0.69219-2.6865 3.1929-2.3906 8.059 0.6617 10.869 20.997 19.333 57.412 14.465 76.648-8.3939z" fill="#000"/>
			<path id="Path" d="m295.77 99.426c-10.53 9.6962-27.67 10.477-41.692 3.8156 26.304-6.3561 52.531-26.528 53.903-49.05 0.25882-4.2443-2.8211-7.9047-6.8785-8.1755-4.0574-0.27074-7.5566 2.9511-7.8155 7.1954-1.1112 18.237-34.495 38.197-58.445 36.608-6.5447-0.43409-10.325 7.625-5.9916 12.774 19.236 22.859 55.652 27.727 76.648 8.393 3.0515-2.8103 3.3482-7.6764 0.66171-10.869-2.6874-3.192-7.3392-3.5016-10.391-0.69129z" fill="#000"/>
			<path id="Path" d="m117.28 54c24.162 0 43.715-20.703 43.715-46.286 0-4.2607-3.2624-7.714-7.2856-7.714-4.024 0-7.2856 3.4534-7.2856 7.714 0 17.062-13.029 30.857-29.143 30.857-4.024 0-7.2856 3.4534-7.2856 7.714 0 4.2607 3.2607 7.7149 7.2847 7.7149z" fill="#000"/>
			<path id="c" d="m263.71 54c4.024 0 7.2856-3.4543 7.2856-7.7142 0-4.2598-3.2616-7.7142-7.2856-7.7142-16.114 0-29.143-13.796-29.143-30.858 0-4.2607-3.2616-7.7142-7.2856-7.7142s-7.2856 3.4534-7.2856 7.7142c-8.54e-4 25.582 19.552 46.286 43.714 46.286z" fill="#000"/>
			<path d="m281.74 235.8-21.923-15.499c-2.4543-1.7355-5.6528-1.7355-8.1071 0l-17.869 12.633-17.87-12.633c-2.4543-1.7355-5.6528-1.7355-8.1071 0l-17.869 12.633-17.87-12.633c-2.4543-1.7355-5.6528-1.7355-8.1071 0l-17.869 12.633-17.87-12.633c-2.4543-1.7355-5.6528-1.7355-8.1071 0l-21.923 15.499c-3.3578 2.3739-4.2655 7.1853-2.027 10.747 2.2385 3.5609 6.7755 4.5235 10.134 2.1496l17.87-12.633 17.87 12.633c2.4543 1.7355 5.6528 1.7355 8.1071 0l17.87-12.633 17.87 12.633c2.4543 1.7355 5.6528 1.7355 8.1071 0l17.87-12.633 17.87 12.633c2.4543 1.7355 5.652 1.7355 8.1071 0l17.87-12.633 17.87 12.633c3.3578 2.3739 7.8948 1.4122 10.134-2.1496 2.2351-3.5618 1.3282-8.3731-2.0304-10.747z" fill="#000"/>
		</g>
	</g>
</svg>
